<svg width="24" height="25" viewBox="0 0 24 25" fill="none" xmlns="http://www.w3.org/2000/svg">
<path fill-rule="evenodd" clip-rule="evenodd" d="M19.1292 17.641V17.641C20.8252 17.025 21.5792 15.046 20.7232 13.458L18.1962 8.767C17.9612 8.33 17.4412 8.132 16.9742 8.301L14.6812 9.134C14.2072 9.306 13.9362 9.804 14.0472 10.295L15.2332 15.516C15.6292 17.252 17.4562 18.248 19.1292 17.641Z" stroke="#323232" stroke-width="1.5" stroke-linecap="round" stroke-linejoin="round"/>
<path d="M21.9999 20.27L18.6299 21.5" stroke="#323232" stroke-width="1.5" stroke-linecap="round" stroke-linejoin="round"/>
<path d="M14.6899 13.1101H20.5299" stroke="#323232" stroke-width="1.5" stroke-linecap="round" stroke-linejoin="round"/>
<path d="M19.1299 17.6399L20.3099 20.8899" stroke="#323232" stroke-width="1.5" stroke-linecap="round" stroke-linejoin="round"/>
<path fill-rule="evenodd" clip-rule="evenodd" d="M4.87093 17.641V17.641C3.17493 17.025 2.42093 15.046 3.27693 13.458L5.80393 8.767C6.03893 8.33 6.55893 8.132 7.02593 8.301L9.31893 9.134C9.79293 9.306 10.0639 9.804 9.95293 10.295L8.76693 15.516C8.37093 17.252 6.54393 18.248 4.87093 17.641Z" stroke="#323232" stroke-width="1.5" stroke-linecap="round" stroke-linejoin="round"/>
<path d="M2 20.27L5.37 21.5" stroke="#323232" stroke-width="1.5" stroke-linecap="round" stroke-linejoin="round"/>
<path d="M9.30996 13.1101H3.45996" stroke="#323232" stroke-width="1.5" stroke-linecap="round" stroke-linejoin="round"/>
<path d="M4.86994 17.6399L3.68994 20.8899" stroke="#323232" stroke-width="1.5" stroke-linecap="round" stroke-linejoin="round"/>
<path d="M15 5.5L16 4.5" stroke="#323232" stroke-width="1.5" stroke-linecap="round" stroke-linejoin="round"/>
<path d="M9 5.5L8 4.5" stroke="#323232" stroke-width="1.5" stroke-linecap="round" stroke-linejoin="round"/>
<path d="M12 4.5V3.5" stroke="#323232" stroke-width="1.5" stroke-linecap="round" stroke-linejoin="round"/>
</svg>
