<svg width="130" height="42" viewBox="0 0 130 42" fill="none" xmlns="http://www.w3.org/2000/svg">
<path d="M1.04745 13.5754H0.729627V15.0429H0.00830078V11.5137H0.729627V12.9867H1.04745L2.17228 11.5137H2.99586C2.772 11.8094 2.54538 12.1023 2.31876 12.3981C2.09213 12.6938 1.86275 12.9867 1.63612 13.2769L2.64211 14.4653L2.7416 14.5123L2.86873 14.5316H3.12852L3.06772 15.0429C2.95165 15.0512 2.84386 15.0595 2.7416 15.0623C2.63658 15.0623 2.53709 15.0457 2.44036 15.0153C2.34087 14.9794 2.24414 14.9268 2.14464 14.8522C2.04515 14.7748 1.94013 14.6698 1.83511 14.5316L1.04745 13.5754Z" fill="#331D02"/>
<path d="M13.2688 12.0275C13.1306 12.0275 12.9979 12.0302 12.8708 12.0468C12.7464 12.0579 12.6386 12.1049 12.5447 12.1822C12.4452 12.2596 12.3706 12.3868 12.3153 12.5526C12.26 12.7239 12.2351 12.9616 12.2351 13.2739C12.2351 13.5834 12.26 13.8239 12.3153 13.9925C12.3706 14.1583 12.4452 14.2827 12.5447 14.3628C12.6386 14.443 12.7464 14.4872 12.8708 14.501C12.9979 14.512 13.1306 14.5176 13.2688 14.5176C13.4097 14.5176 13.5368 14.512 13.6612 14.501C13.7883 14.4872 13.8989 14.443 13.9956 14.3628C14.0896 14.2827 14.167 14.1583 14.2222 13.9925C14.2803 13.8239 14.3107 13.5834 14.3107 13.2739C14.3107 12.9616 14.2803 12.7239 14.2222 12.5526C14.167 12.3868 14.0896 12.2596 13.9901 12.1822C13.8934 12.1049 13.7828 12.0579 13.6584 12.0468C13.5341 12.0302 13.4042 12.0275 13.2688 12.0275ZM11.4917 13.2739C11.4917 12.8759 11.5387 12.5609 11.6326 12.3204C11.7266 12.0828 11.8537 11.8948 12.014 11.7649C12.1743 11.635 12.3623 11.5466 12.5778 11.5079C12.7934 11.4637 13.0256 11.4443 13.2688 11.4443C13.5175 11.4443 13.7469 11.4637 13.9624 11.5079C14.178 11.5466 14.3687 11.635 14.5262 11.7649C14.6865 11.8948 14.8164 12.0828 14.9076 12.3204C15.0044 12.5609 15.0513 12.8759 15.0513 13.2739C15.0513 13.6664 15.0044 13.9869 14.9076 14.2246C14.8164 14.4623 14.6865 14.653 14.5262 14.7801C14.3687 14.91 14.178 14.9985 13.9624 15.0399C13.7469 15.0814 13.5175 15.1007 13.2688 15.1007C13.0256 15.1007 12.7934 15.0814 12.5778 15.0399C12.3623 14.9985 12.1743 14.91 12.014 14.7801C11.8537 14.653 11.7266 14.4623 11.6326 14.2246C11.5387 13.9869 11.4917 13.6664 11.4917 13.2739Z" fill="#331D02"/>
<path d="M25.8048 15.0429V13.4621H24.3676V15.0429H23.6436V11.5137H24.3676V12.8679H25.8048V11.5137H26.5289V15.0429H25.8048Z" fill="#331D02"/>
<path d="M37.3323 12.1134H36.2821L36.2406 13.5533C36.2296 13.7771 36.2047 13.9568 36.1688 14.1005C36.1329 14.2442 36.0748 14.3603 36.0002 14.4432H37.3323V12.1134ZM37.78 15.7228V15.0429H35.6409V15.5791L35.0522 15.6344V14.4432H35.1738C35.2789 14.41 35.359 14.3271 35.4143 14.1917C35.4668 14.0535 35.5027 13.849 35.5165 13.5726L35.616 11.5137H38.0564V14.4432H38.377V15.6675L37.78 15.7228Z" fill="#331D02"/>
<path d="M47.0107 15.0429V11.5137H47.7127V13.8324L49.1443 11.5137H49.9182V15.0429H49.2106V12.7131L47.7791 15.0429H47.0107Z" fill="#331D02"/>
<path d="M59.3311 15.0429V12.1023H58.2422L58.2947 11.5137H61.2187L61.1634 12.1023H60.0579V15.0429H59.3311Z" fill="#331D02"/>
<path d="M71.9477 12.9229C71.9366 12.7322 71.9117 12.5775 71.8703 12.4614C71.8288 12.3425 71.7736 12.2541 71.6989 12.1878C71.6243 12.1242 71.5359 12.0828 71.4281 12.0606C71.3231 12.0385 71.1932 12.0275 71.0467 12.0275C70.9168 12.0275 70.798 12.0302 70.6902 12.0441C70.5824 12.0579 70.4857 12.0938 70.4028 12.1518C70.3226 12.2099 70.2563 12.3011 70.2038 12.4199C70.154 12.5415 70.1236 12.7073 70.1126 12.9229H71.9477ZM70.1126 13.5143C70.1236 13.7299 70.1513 13.904 70.1927 14.0367C70.2369 14.1666 70.3005 14.2688 70.3834 14.3407C70.4691 14.4126 70.5769 14.4623 70.704 14.4872C70.8339 14.512 70.9914 14.5231 71.1794 14.5231C71.2899 14.5231 71.4005 14.5148 71.5193 14.4927C71.6354 14.4734 71.7432 14.4485 71.8509 14.4236C71.956 14.396 72.0527 14.3683 72.1384 14.3379C72.224 14.3075 72.2959 14.2854 72.3429 14.2661L72.5281 14.8326C72.4534 14.8686 72.3567 14.9045 72.2462 14.9377C72.1356 14.9708 72.0168 14.9985 71.8896 15.0233C71.7625 15.051 71.6298 15.0703 71.4944 15.0869C71.359 15.1035 71.2263 15.1145 71.0965 15.1145C70.8201 15.1145 70.5769 15.0897 70.3613 15.0454C70.1485 15.0012 69.9689 14.9155 69.8224 14.7857C69.6731 14.6558 69.5598 14.4734 69.4825 14.2412C69.4051 14.0091 69.3691 13.7023 69.3691 13.3209C69.3691 12.9284 69.4078 12.6079 69.4907 12.3619C69.5737 12.1159 69.6897 11.928 69.8417 11.7898C69.9882 11.6544 70.1651 11.5632 70.3696 11.5134C70.5769 11.4692 70.798 11.4443 71.0467 11.4443C71.312 11.4443 71.5469 11.4692 71.7515 11.5217C71.956 11.5715 72.1273 11.6654 72.2683 11.7981C72.4065 11.9335 72.5142 12.1132 72.5861 12.3453C72.6635 12.5775 72.6994 12.8732 72.6994 13.2352V13.5143H70.1126Z" fill="#331D02"/>
<path d="M83.2844 12.6302C83.2844 12.5058 83.2733 12.4091 83.2484 12.3373C83.2263 12.2626 83.1904 12.2101 83.1434 12.177C83.0937 12.141 83.0301 12.1217 82.95 12.1134C82.8698 12.1079 82.7703 12.1023 82.657 12.1023H81.9467V13.1857H82.657C82.7703 13.1857 82.8698 13.1802 82.95 13.1719C83.0301 13.1664 83.0937 13.1443 83.1434 13.1111C83.1904 13.0779 83.2263 13.0227 83.2484 12.9563C83.2733 12.8845 83.2844 12.7877 83.2844 12.6634V12.6302ZM81.2144 15.0429V11.5137H82.6487C82.9085 11.5137 83.1268 11.5303 83.3037 11.5551C83.4834 11.5855 83.6215 11.638 83.7293 11.7209C83.8343 11.8011 83.9117 11.9116 83.9587 12.0609C84.0057 12.2101 84.0306 12.4036 84.0306 12.6468C84.0306 12.8872 84.0057 13.0835 83.9587 13.2327C83.9117 13.3819 83.8343 13.4925 83.7293 13.5699C83.6215 13.65 83.4834 13.7053 83.3037 13.7302C83.1268 13.7578 82.9085 13.7716 82.6487 13.7716H81.9467V15.0429H81.2144Z" fill="#331D02"/>
<path d="M95.3035 14.8686C95.1488 14.9432 94.9553 15.0012 94.7314 15.0454C94.5048 15.0924 94.2616 15.1145 94.0046 15.1145C93.731 15.1145 93.485 15.0897 93.2667 15.0427C93.0483 14.9985 92.8604 14.9073 92.7084 14.7774C92.5509 14.6447 92.432 14.4623 92.3464 14.2191C92.2607 13.9842 92.2192 13.6664 92.2192 13.2794C92.2192 12.8925 92.2607 12.5747 92.3464 12.337C92.432 12.0966 92.5509 11.9114 92.7084 11.7787C92.8604 11.6461 93.0483 11.5576 93.2667 11.5134C93.485 11.4664 93.731 11.4443 94.0046 11.4443C94.5186 11.4443 94.936 11.5162 95.2483 11.6654L95.0631 12.2292C94.9553 12.1961 94.8116 12.1546 94.6264 12.1076C94.444 12.0579 94.2395 12.0302 94.0156 12.0302C93.8636 12.0302 93.7255 12.0413 93.5956 12.0634C93.4657 12.0883 93.3551 12.138 93.2612 12.2237C93.1672 12.3066 93.0953 12.4337 93.0428 12.5996C92.9848 12.7654 92.9599 12.992 92.9599 13.2794C92.9599 13.5669 92.9848 13.7935 93.0428 13.9621C93.0953 14.1279 93.1672 14.2523 93.2612 14.3379C93.3551 14.4208 93.4657 14.4678 93.5956 14.4899C93.7255 14.512 93.8636 14.5231 94.0156 14.5231C94.1262 14.5231 94.234 14.5148 94.3473 14.501C94.4578 14.4844 94.5601 14.4623 94.6541 14.443C94.7536 14.4208 94.842 14.396 94.9221 14.3711C95.0023 14.3462 95.0686 14.3241 95.1211 14.3048L95.3035 14.8686Z" fill="#331D02"/>
<path d="M104.786 13.5754H104.474V15.0429H103.75V11.5137H104.474V12.9867H104.786L105.913 11.5137H106.74C106.51 11.8094 106.287 12.1023 106.06 12.3981C105.833 12.6938 105.604 12.9867 105.38 13.2769L106.383 14.4653L106.483 14.5123L106.61 14.5316H106.87L106.809 15.0429C106.693 15.0512 106.588 15.0595 106.483 15.0623C106.381 15.0623 106.278 15.0457 106.182 15.0153C106.082 14.9794 105.985 14.9268 105.886 14.8522C105.786 14.7748 105.684 14.6698 105.579 14.5316L104.786 13.5754Z" fill="#331D02"/>
<path d="M117.488 13.3762H116.609C116.504 13.3762 116.404 13.3845 116.318 13.3983C116.233 13.4093 116.158 13.437 116.092 13.4812C116.028 13.5226 115.979 13.589 115.943 13.6691C115.909 13.7548 115.89 13.8653 115.89 14.0091C115.89 14.1168 115.909 14.2053 115.945 14.2716C115.984 14.3379 116.031 14.3904 116.095 14.4236C116.158 14.4512 116.233 14.4734 116.324 14.4844C116.41 14.4955 116.506 14.501 116.614 14.501C116.802 14.501 116.954 14.4789 117.065 14.4319C117.181 14.3822 117.269 14.3131 117.333 14.2163C117.396 14.1224 117.435 14.0063 117.454 13.8681C117.476 13.7299 117.488 13.5696 117.488 13.39V13.3762ZM118.496 15.0454C118.264 15.0206 118.09 14.9681 117.974 14.8851C117.863 14.8078 117.789 14.6779 117.747 14.4955C117.631 14.6917 117.482 14.8382 117.294 14.9432C117.103 15.0454 116.874 15.098 116.609 15.098C116.399 15.098 116.208 15.0786 116.031 15.0454C115.854 15.015 115.708 14.957 115.581 14.8741C115.456 14.7912 115.357 14.6779 115.288 14.5369C115.219 14.3987 115.183 14.2191 115.183 14.0091C115.183 13.7658 115.219 13.5669 115.288 13.4093C115.357 13.2546 115.456 13.1302 115.581 13.0335C115.708 12.9423 115.854 12.8759 116.031 12.84C116.208 12.8013 116.399 12.7847 116.609 12.7847H117.482C117.471 12.6079 117.449 12.4697 117.418 12.3674C117.388 12.2679 117.341 12.1933 117.278 12.1463C117.214 12.0966 117.134 12.0634 117.032 12.0524C116.929 12.0385 116.805 12.033 116.653 12.033C116.542 12.033 116.435 12.0385 116.327 12.0551C116.222 12.0689 116.12 12.0883 116.028 12.1076C115.932 12.1297 115.846 12.1518 115.769 12.1767C115.691 12.2016 115.628 12.2209 115.575 12.2403L115.393 11.6737C115.547 11.6019 115.735 11.5438 115.951 11.5051C116.169 11.4637 116.404 11.4443 116.664 11.4443C116.96 11.4443 117.211 11.4637 117.413 11.5079C117.612 11.5549 117.772 11.6406 117.891 11.7677C118.013 11.8948 118.101 12.08 118.151 12.3177C118.201 12.5553 118.228 12.8676 118.228 13.2546V13.9565C118.228 14.1389 118.253 14.2633 118.303 14.3379C118.358 14.4126 118.441 14.4595 118.56 14.4734L118.496 15.0454Z" fill="#331D02"/>
<path d="M127.868 12.6634C127.868 12.7877 127.879 12.8845 127.899 12.9536C127.921 13.0227 127.957 13.0779 128.006 13.1111C128.053 13.1443 128.117 13.1664 128.197 13.1719C128.275 13.1802 128.374 13.1857 128.493 13.1857H129.203V12.1023H128.493C128.374 12.1023 128.275 12.1079 128.197 12.1134C128.117 12.1217 128.053 12.141 128.006 12.177C127.957 12.2101 127.921 12.2626 127.899 12.3373C127.879 12.4091 127.868 12.5058 127.868 12.6302V12.6634ZM129.203 15.0429V13.7744H128.769L128.139 14.5316C128.023 14.6671 127.918 14.7693 127.816 14.8467C127.719 14.9213 127.62 14.9766 127.526 15.0098C127.432 15.0429 127.332 15.0567 127.227 15.0567C127.128 15.0567 127.02 15.0512 126.907 15.0429L126.846 14.5316L126.973 14.5372H127.114L127.241 14.5178L127.335 14.4625L127.937 13.7467C127.788 13.7274 127.661 13.697 127.556 13.6528C127.451 13.6058 127.365 13.5422 127.302 13.4566C127.235 13.3709 127.191 13.2631 127.161 13.1332C127.136 13.0033 127.125 12.843 127.125 12.6468C127.125 12.4063 127.144 12.2101 127.191 12.0636C127.235 11.9116 127.313 11.8011 127.421 11.7209C127.526 11.638 127.669 11.5855 127.846 11.5551C128.023 11.5303 128.239 11.5137 128.501 11.5137H129.936V15.0429H129.203Z" fill="#331D02"/>
<path d="M46.6403 35.0962C46.1124 36.304 45.3966 37.3597 44.4874 38.2634C43.5781 39.1672 42.5168 39.8774 41.2925 40.4053C40.071 40.9276 38.7637 41.1902 37.3791 41.1902C35.989 41.1902 34.6873 40.9276 33.4712 40.4053C32.2552 39.8774 31.1939 39.1672 30.2847 38.2634C29.3782 37.3597 28.6596 36.304 28.1345 35.0962C27.6067 33.8885 27.3413 32.5951 27.3413 31.216C27.3413 29.8341 27.6067 28.538 28.1345 27.3192C28.6596 26.1087 29.3782 25.0502 30.2847 24.1492C31.1939 23.2427 32.2552 22.5297 33.4712 22.0073C34.6873 21.4822 35.989 21.2197 37.3791 21.2197C38.7637 21.2197 40.071 21.4822 41.2925 22.0073C42.5168 22.5297 43.5781 23.2427 44.4874 24.1492C45.3966 25.0502 46.1124 26.1087 46.6403 27.3192C47.1681 28.538 47.4335 29.8341 47.4335 31.216C47.4335 32.5951 47.1681 33.8885 46.6403 35.0962ZM45.0622 23.5716C44.0866 22.6043 42.9259 21.8249 41.6159 21.2584C40.2976 20.6973 38.8715 20.4099 37.3791 20.4099C35.8812 20.4099 34.4606 20.6973 33.1479 21.2611C31.8434 21.8277 30.6854 22.6043 29.7098 23.5716C28.7315 24.5444 27.9494 25.6969 27.3856 27.0013C26.8135 28.3113 26.5288 29.7291 26.5288 31.216C26.5288 32.7029 26.8162 34.1179 27.3856 35.4196C27.9521 36.7158 28.7315 37.8655 29.7098 38.8355C30.6854 39.8083 31.8434 40.5822 33.1479 41.146C34.4606 41.7125 35.8812 42 37.3791 42C38.8715 42 40.2976 41.7153 41.6159 41.146C42.9259 40.5877 44.0866 39.8083 45.0622 38.8355C46.0406 37.8655 46.8254 36.7158 47.3892 35.4196C47.9586 34.1179 48.2488 32.7029 48.2488 31.216C48.2488 29.7291 47.9586 28.3113 47.392 27.0013C46.8254 25.6969 46.0406 24.5444 45.0622 23.5716Z" fill="#331D02"/>
<path d="M45.1532 34.4743C44.7082 35.4914 44.0947 36.3896 43.3402 37.1441C42.5829 37.893 41.682 38.4955 40.6622 38.9322C39.6479 39.3633 38.5424 39.5816 37.3789 39.5816C36.2126 39.5816 35.1071 39.3633 34.0928 38.9322C33.0703 38.4955 32.1693 37.893 31.412 37.1441C30.6548 36.3896 30.0523 35.4941 29.6156 34.4798C29.1762 33.4711 28.9606 32.3739 28.9606 31.2159C28.9606 30.0579 29.1762 28.9552 29.6156 27.952C30.0523 26.9377 30.6548 26.0395 31.412 25.2878C32.1693 24.5333 33.073 23.9308 34.0956 23.4858C35.1099 23.0492 36.2154 22.8281 37.3789 22.8281C38.5396 22.8281 39.6423 23.0492 40.6566 23.4858C41.6792 23.9308 42.5829 24.5333 43.3402 25.2878C44.0947 26.0423 44.7082 26.9377 45.1532 27.9547C45.5926 28.9607 45.8165 30.0579 45.8165 31.2159C45.8165 32.3711 45.5926 33.4711 45.1532 34.4743ZM43.9178 24.7157C43.0832 23.8866 42.1048 23.2288 40.9827 22.7424C39.8607 22.2588 38.6585 22.0183 37.3789 22.0183C36.0965 22.0183 34.8943 22.2588 33.7695 22.7424C32.6502 23.2288 31.6718 23.8866 30.8372 24.7157C30.0026 25.5448 29.3448 26.5149 28.8639 27.6314C28.383 28.7452 28.1426 29.9391 28.1426 31.2159C28.1426 32.49 28.383 33.6839 28.8639 34.7977C29.3448 35.9114 30.0026 36.887 30.8372 37.7161C31.6718 38.5453 32.6502 39.2003 33.7695 39.6756C34.8943 40.1565 36.0965 40.3914 37.3789 40.3914C38.6585 40.3914 39.8607 40.1565 40.9827 39.6756C42.1048 39.2003 43.0832 38.5453 43.9178 37.7161C44.7497 36.887 45.4102 35.9114 45.8994 34.7977C46.3858 33.6839 46.6318 32.49 46.6318 31.2159C46.6318 29.9391 46.3858 28.7452 45.8994 27.6314C45.4102 26.5149 44.7497 25.5448 43.9178 24.7157Z" fill="#331D02"/>
<path d="M0.823427 21.2805H20.9321V22.0764H11.2398V41.1902H10.4356V22.0764H0.823427V21.2805ZM0.00537109 22.8862H9.62029V42H12.0524V22.8862H21.7474V20.4707H0.00537109V22.8862Z" fill="#331D02"/>
<path d="M59.5246 22.8889H72.409C72.9451 22.8889 73.4647 22.9884 73.9484 23.1985C74.4403 23.4113 74.8714 23.6959 75.2307 24.0469C75.5872 24.3979 75.8774 24.818 76.0847 25.3044C76.2975 25.7908 76.3998 26.2883 76.3998 26.8355C76.3998 27.3883 76.2975 27.894 76.0875 28.3694C75.8747 28.8558 75.5845 29.2842 75.2224 29.649C74.8632 30.011 74.4348 30.3012 73.9484 30.5085C73.4647 30.7185 72.9451 30.8235 72.409 30.8235H59.5246V22.8889ZM74.2717 31.2547C74.8604 31.0032 75.3689 30.655 75.8028 30.221C76.2367 29.7789 76.5794 29.2731 76.8337 28.6955C77.0907 28.1206 77.2151 27.496 77.2151 26.8355C77.2151 26.1833 77.0907 25.567 76.8337 24.9838C76.5794 24.3979 76.2367 23.8949 75.8028 23.4693C75.3689 23.0437 74.8604 22.7065 74.2717 22.455C73.6858 22.2035 73.0612 22.0764 72.409 22.0764H58.7065V31.6333H72.409C73.0612 31.6333 73.6858 31.5062 74.2717 31.2547Z" fill="#331D02"/>
<path d="M106.64 22.0764H96.9451V41.1902H96.1408V22.0764H86.5314V21.2805H106.64V22.0764ZM107.455 20.4707H85.7134V22.8862H95.3283V42H97.7604V22.8862H107.455V20.4707Z" fill="#331D02"/>
<path d="M125.246 37.9899H111.933L118.505 24.1907L125.246 37.9899ZM110.645 38.7969H126.55L118.497 22.3169L110.645 38.7969Z" fill="#331D02"/>
<path d="M126.948 39.5982H110.264L109.504 41.1901H108.603L118.099 21.261H118.897L128.631 41.1901H127.73L126.948 39.5982ZM119.409 20.4485H117.579L107.312 41.9998H110.02L110.78 40.408H126.442L127.219 41.9998H129.936L119.409 20.4485Z" fill="#331D02"/>
<path d="M78.0748 41.1902H77.1351L71.4088 32.4292H58.7068V41.1902H57.9081V21.2805H72.4092C73.1858 21.2805 73.9154 21.4269 74.6036 21.7171C75.289 22.0073 75.886 22.4053 76.3945 22.9028C76.9002 23.4002 77.301 23.9889 77.5967 24.6632C77.8896 25.3403 78.0361 26.0644 78.0361 26.8355C78.0361 27.6176 77.8896 28.3473 77.5967 29.0244C77.301 29.7042 76.9002 30.2929 76.3945 30.7959C75.886 31.2989 75.289 31.6996 74.6036 31.9926C73.9154 32.2828 73.1858 32.4292 72.4092 32.4292H72.3678L78.0748 41.1902ZM74.9214 32.736C75.7036 32.4071 76.3917 31.9456 76.9721 31.368C77.5497 30.7931 78.014 30.1133 78.3457 29.345C78.6828 28.5684 78.8542 27.7227 78.8542 26.8355C78.8542 25.9567 78.6828 25.1193 78.3429 24.3427C78.0085 23.5716 77.5497 22.8945 76.9666 22.3224C76.389 21.7586 75.7036 21.3026 74.9214 20.9709C74.1365 20.6393 73.2908 20.4707 72.4092 20.4707H57.0928V42H59.5248V33.239H70.9666L76.693 42H79.5755L73.7773 33.0981C74.1697 33.0152 74.5511 32.8963 74.9214 32.736Z" fill="#331D02"/>
<path d="M110.647 38.794H126.55L118.499 22.3113L110.647 38.794ZM128.631 41.1819H127.73L126.951 39.59H110.266L109.506 41.1819H108.605L118.098 21.2556H118.897L128.631 41.1819ZM86.5341 21.2777H106.643V22.0709H96.9478V41.1819H96.1463V22.0709H86.5341V21.2777ZM74.2771 31.2491C74.8658 30.9976 75.3743 30.6522 75.8082 30.2127C76.2421 29.7761 76.5848 29.2703 76.8391 28.6899C77.0933 28.1123 77.2205 27.4932 77.2205 26.8272C77.2205 26.1805 77.0933 25.5614 76.8391 24.9783C76.5848 24.3951 76.2421 23.8921 75.8082 23.4665C75.3743 23.0409 74.8658 22.701 74.2771 22.4495C73.6912 22.198 73.0694 22.0709 72.4144 22.0709H58.7147V31.6277H72.4144C73.0694 31.6277 73.6912 31.5006 74.2771 31.2491ZM57.9132 21.2777H72.4144C73.1882 21.2777 73.9206 21.4214 74.606 21.7116C75.2942 22.0045 75.8911 22.4025 76.3996 22.8972C76.9054 23.3974 77.3061 23.9806 77.6019 24.6604C77.8948 25.3348 78.0413 26.0616 78.0413 26.8272C78.0413 27.6121 77.8948 28.3417 77.6019 29.0188C77.3061 29.6959 76.9054 30.2873 76.3996 30.7903C75.8911 31.2933 75.2942 31.6941 74.606 31.987C73.9206 32.2772 73.1882 32.4237 72.4144 32.4237H72.3729L78.08 41.1819H77.1403L71.4139 32.4237H58.7147V41.1819H57.9132V21.2777ZM28.1537 31.2104C28.1537 32.4845 28.3941 33.6784 28.875 34.7922C29.3559 35.906 30.0109 36.8788 30.8455 37.7079C31.6802 38.5398 32.6585 39.192 33.7806 39.6701C34.9026 40.1482 36.1049 40.3859 37.3872 40.3859C38.6668 40.3859 39.869 40.1482 40.9911 39.6701C42.1131 39.192 43.0887 38.5398 43.9261 37.7079C44.7608 36.8788 45.4185 35.906 45.9077 34.7922C46.3941 33.6784 46.6401 32.4845 46.6401 31.2104C46.6401 29.9336 46.3941 28.7397 45.9077 27.6259C45.4185 26.5121 44.7608 25.5421 43.9261 24.7102C43.0887 23.8811 42.1131 23.2233 40.9911 22.7397C39.869 22.2533 38.6668 22.0156 37.3872 22.0156C36.1049 22.0156 34.9026 22.2533 33.7806 22.7397C32.6585 23.2233 31.6802 23.8811 30.8455 24.7102C30.0109 25.5421 29.3559 26.5121 28.875 27.6259C28.3941 28.7397 28.1537 29.9336 28.1537 31.2104ZM27.3522 31.2104C27.3522 29.8286 27.6148 28.5324 28.1426 27.3164C28.6677 26.1031 29.3891 25.0446 30.2955 24.1436C31.202 23.2427 32.2661 22.5269 33.4793 22.0018C34.6954 21.4794 35.9971 21.2141 37.3872 21.2141C38.7746 21.2141 40.0763 21.4794 41.3006 22.0018C42.5222 22.5269 43.589 23.2427 44.4955 24.1436C45.4047 25.0446 46.1205 26.1031 46.6484 27.3164C47.1762 28.5324 47.4388 29.8286 47.4388 31.2104C47.4388 32.5895 47.1762 33.8857 46.6484 35.0907C46.1205 36.2984 45.4047 37.3514 44.4955 38.2551C43.589 39.1616 42.5222 39.8691 41.3006 40.397C40.0763 40.9221 38.7746 41.1819 37.3872 41.1819C35.9971 41.1819 34.6954 40.9221 33.4793 40.397C32.2661 39.8691 31.202 39.1616 30.2955 38.2551C29.3891 37.3514 28.6677 36.2984 28.1426 35.0907C27.6148 33.8857 27.3522 32.5895 27.3522 31.2104ZM0.834473 21.2777H20.9432V22.0709H11.2481V41.1819H10.4466V22.0709H0.834473V21.2777Z" fill="#BB9C52"/>
<path d="M2.06445 2.05625H127.877V1.37085H2.06445V2.05625Z" fill="#331D02"/>
<path d="M127.879 2.0562C129.018 2.0562 129.944 1.13588 129.944 0H129.256C129.256 0.760018 128.639 1.3708 127.879 1.3708V2.0562Z" fill="#331D02"/>
<path d="M129.946 3.42704C129.946 2.2884 129.015 1.37361 127.876 1.37085V2.05348C128.639 2.05348 129.256 2.66703 129.256 3.42704H129.946Z" fill="#331D02"/>
<path d="M2.06725 1.37085C1.49793 1.37085 0.978351 1.60024 0.605251 1.97334C0.232152 2.34367 0 2.86049 0 3.42704H0.688162C0.688162 2.66703 1.30447 2.05625 2.06725 2.05625V1.37085Z" fill="#331D02"/>
<path d="M0 0C0 1.13588 0.925841 2.0562 2.06725 2.0562V1.3708C1.30447 1.3708 0.688162 0.757255 0.688162 0H0Z" fill="#331D02"/>
</svg>
