<svg width="20" height="21" viewBox="0 0 20 21" fill="none" xmlns="http://www.w3.org/2000/svg">
<path fill-rule="evenodd" clip-rule="evenodd" d="M13.037 1.33301H6.96103C6.47503 1.33301 6.00803 1.52601 5.66503 1.87001L1.36903 6.16601C1.02503 6.51001 0.832031 6.97601 0.832031 7.46201V13.537C0.832031 14.023 1.02503 14.49 1.36903 14.833L5.66503 19.129C6.00903 19.473 6.47503 19.666 6.96103 19.666H13.036C13.522 19.666 13.989 19.473 14.332 19.129L18.628 14.833C18.972 14.489 19.165 14.023 19.165 13.537V7.46201C19.165 6.97601 18.972 6.50901 18.628 6.16601L14.333 1.87001C13.989 1.52601 13.523 1.33301 13.037 1.33301V1.33301Z" stroke="#323232" stroke-width="1.5" stroke-linecap="round" stroke-linejoin="round"/>
</svg>
