<svg width="130" height="42" viewBox="0 0 130 42" fill="none" xmlns="http://www.w3.org/2000/svg">
<path d="M1.04696 13.5753H0.729139V15.0428H0.0078125V11.5135H0.729139V12.9866H1.04696L2.17179 11.5135H2.99538C2.77152 11.8093 2.54489 12.1022 2.31827 12.3979C2.09164 12.6937 1.86226 12.9866 1.63563 13.2768L2.64162 14.4652L2.74112 14.5122L2.86825 14.5315H3.12803L3.06723 15.0428C2.95116 15.0511 2.84337 15.0594 2.74112 15.0621C2.63609 15.0621 2.5366 15.0456 2.43987 15.0152C2.34038 14.9792 2.24365 14.9267 2.14416 14.8521C2.04466 14.7747 1.93964 14.6697 1.83462 14.5315L1.04696 13.5753Z" fill="#331D02"/>
<path d="M13.2692 12.0276C13.1311 12.0276 12.9984 12.0304 12.8713 12.0469C12.7469 12.058 12.6391 12.105 12.5452 12.1824C12.4457 12.2598 12.371 12.3869 12.3158 12.5527C12.2605 12.7241 12.2356 12.9617 12.2356 13.274C12.2356 13.5836 12.2605 13.824 12.3158 13.9926C12.371 14.1584 12.4457 14.2828 12.5452 14.3629C12.6391 14.4431 12.7469 14.4873 12.8713 14.5011C12.9984 14.5122 13.1311 14.5177 13.2692 14.5177C13.4102 14.5177 13.5373 14.5122 13.6617 14.5011C13.7888 14.4873 13.8994 14.4431 13.9961 14.3629C14.0901 14.2828 14.1675 14.1584 14.2227 13.9926C14.2808 13.824 14.3112 13.5836 14.3112 13.274C14.3112 12.9617 14.2808 12.7241 14.2227 12.5527C14.1675 12.3869 14.0901 12.2598 13.9906 12.1824C13.8938 12.105 13.7833 12.058 13.6589 12.0469C13.5346 12.0304 13.4047 12.0276 13.2692 12.0276ZM11.4922 13.274C11.4922 12.8761 11.5392 12.561 11.6331 12.3206C11.7271 12.0829 11.8542 11.8949 12.0145 11.765C12.1748 11.6352 12.3628 11.5467 12.5783 11.508C12.7939 11.4638 13.026 11.4445 13.2692 11.4445C13.518 11.4445 13.7474 11.4638 13.9629 11.508C14.1785 11.5467 14.3692 11.6352 14.5267 11.765C14.687 11.8949 14.8169 12.0829 14.9081 12.3206C15.0049 12.561 15.0518 12.8761 15.0518 13.274C15.0518 13.6665 15.0049 13.9871 14.9081 14.2247C14.8169 14.4624 14.687 14.6531 14.5267 14.7802C14.3692 14.9101 14.1785 14.9986 13.9629 15.04C13.7474 15.0815 13.518 15.1008 13.2692 15.1008C13.026 15.1008 12.7939 15.0815 12.5783 15.04C12.3628 14.9986 12.1748 14.9101 12.0145 14.7802C11.8542 14.6531 11.7271 14.4624 11.6331 14.2247C11.5392 13.9871 11.4922 13.6665 11.4922 13.274Z" fill="#331D02"/>
<path d="M25.8038 15.0428V13.462H24.3667V15.0428H23.6426V11.5135H24.3667V12.8678H25.8038V11.5135H26.5279V15.0428H25.8038Z" fill="#331D02"/>
<path d="M37.3328 12.1133H36.2826L36.2411 13.5532C36.2301 13.777 36.2052 13.9567 36.1693 14.1004C36.1333 14.2441 36.0753 14.3602 36.0007 14.4431H37.3328V12.1133ZM37.7805 15.7227V15.0428H35.6414V15.579L35.0527 15.6342V14.4431H35.1743C35.2794 14.4099 35.3595 14.327 35.4148 14.1916C35.4673 14.0534 35.5032 13.8489 35.517 13.5725L35.6165 11.5135H38.0569V14.4431H38.3775V15.6674L37.7805 15.7227Z" fill="#331D02"/>
<path d="M47.0098 15.0428V11.5135H47.7117V13.8323L49.1433 11.5135H49.9172V15.0428H49.2097V12.713L47.7781 15.0428H47.0098Z" fill="#331D02"/>
<path d="M59.3311 15.0428V12.1022H58.2422L58.2947 11.5135H61.2187L61.1634 12.1022H60.0579V15.0428H59.3311Z" fill="#331D02"/>
<path d="M71.9477 12.923C71.9366 12.7323 71.9117 12.5776 71.8703 12.4615C71.8288 12.3427 71.7736 12.2542 71.6989 12.1879C71.6243 12.1243 71.5359 12.0829 71.4281 12.0608C71.3231 12.0387 71.1932 12.0276 71.0467 12.0276C70.9168 12.0276 70.798 12.0304 70.6902 12.0442C70.5824 12.058 70.4857 12.0939 70.4028 12.152C70.3226 12.21 70.2563 12.3012 70.2038 12.42C70.154 12.5416 70.1236 12.7075 70.1126 12.923H71.9477ZM70.1126 13.5145C70.1236 13.73 70.1513 13.9042 70.1927 14.0368C70.2369 14.1667 70.3005 14.269 70.3834 14.3408C70.4691 14.4127 70.5769 14.4624 70.704 14.4873C70.8339 14.5122 70.9914 14.5232 71.1794 14.5232C71.2899 14.5232 71.4005 14.5149 71.5193 14.4928C71.6354 14.4735 71.7432 14.4486 71.8509 14.4237C71.956 14.3961 72.0527 14.3685 72.1384 14.3381C72.224 14.3077 72.2959 14.2855 72.3429 14.2662L72.5281 14.8328C72.4534 14.8687 72.3567 14.9046 72.2462 14.9378C72.1356 14.9709 72.0168 14.9986 71.8896 15.0235C71.7625 15.0511 71.6298 15.0704 71.4944 15.087C71.359 15.1036 71.2263 15.1147 71.0965 15.1147C70.8201 15.1147 70.5769 15.0898 70.3613 15.0456C70.1485 15.0013 69.9689 14.9157 69.8224 14.7858C69.6731 14.6559 69.5598 14.4735 69.4825 14.2413C69.4051 14.0092 69.3691 13.7024 69.3691 13.321C69.3691 12.9286 69.4078 12.608 69.4907 12.362C69.5737 12.116 69.6897 11.9281 69.8417 11.7899C69.9882 11.6545 70.1651 11.5633 70.3696 11.5136C70.5769 11.4693 70.798 11.4445 71.0467 11.4445C71.312 11.4445 71.5469 11.4693 71.7515 11.5218C71.956 11.5716 72.1273 11.6656 72.2683 11.7982C72.4065 11.9336 72.5142 12.1133 72.5861 12.3454C72.6635 12.5776 72.6994 12.8733 72.6994 13.2353V13.5145H70.1126Z" fill="#331D02"/>
<path d="M83.2849 12.6301C83.2849 12.5057 83.2738 12.409 83.2489 12.3371C83.2268 12.2625 83.1909 12.21 83.1439 12.1768C83.0942 12.1409 83.0306 12.1216 82.9504 12.1133C82.8703 12.1077 82.7708 12.1022 82.6575 12.1022H81.9472V13.1856H82.6575C82.7708 13.1856 82.8703 13.1801 82.9504 13.1718C83.0306 13.1662 83.0942 13.1441 83.1439 13.111C83.1909 13.0778 83.2268 13.0225 83.2489 12.9562C83.2738 12.8843 83.2849 12.7876 83.2849 12.6633V12.6301ZM81.2148 15.0428V11.5135H82.6492C82.909 11.5135 83.1273 11.5301 83.3042 11.555C83.4838 11.5854 83.622 11.6379 83.7298 11.7208C83.8348 11.801 83.9122 11.9115 83.9592 12.0608C84.0062 12.21 84.0311 12.4035 84.0311 12.6467C84.0311 12.8871 84.0062 13.0833 83.9592 13.2326C83.9122 13.3818 83.8348 13.4924 83.7298 13.5697C83.622 13.6499 83.4838 13.7052 83.3042 13.73C83.1273 13.7577 82.909 13.7715 82.6492 13.7715H81.9472V15.0428H81.2148Z" fill="#331D02"/>
<path d="M95.303 14.8687C95.1483 14.9433 94.9548 15.0013 94.731 15.0456C94.5043 15.0925 94.2611 15.1147 94.0041 15.1147C93.7305 15.1147 93.4845 15.0898 93.2662 15.0428C93.0479 14.9986 92.8599 14.9074 92.7079 14.7775C92.5504 14.6448 92.4316 14.4624 92.3459 14.2192C92.2602 13.9843 92.2188 13.6665 92.2188 13.2796C92.2188 12.8926 92.2602 12.5748 92.3459 12.3371C92.4316 12.0967 92.5504 11.9115 92.7079 11.7789C92.8599 11.6462 93.0479 11.5578 93.2662 11.5136C93.4845 11.4666 93.7305 11.4445 94.0041 11.4445C94.5182 11.4445 94.9355 11.5163 95.2478 11.6656L95.0626 12.2293C94.9548 12.1962 94.8111 12.1547 94.6259 12.1077C94.4435 12.058 94.239 12.0304 94.0152 12.0304C93.8632 12.0304 93.725 12.0414 93.5951 12.0635C93.4652 12.0884 93.3546 12.1381 93.2607 12.2238C93.1667 12.3067 93.0948 12.4339 93.0423 12.5997C92.9843 12.7655 92.9594 12.9921 92.9594 13.2796C92.9594 13.567 92.9843 13.7936 93.0423 13.9622C93.0948 14.128 93.1667 14.2524 93.2607 14.3381C93.3546 14.421 93.4652 14.4679 93.5951 14.4901C93.725 14.5122 93.8632 14.5232 94.0152 14.5232C94.1257 14.5232 94.2335 14.5149 94.3468 14.5011C94.4573 14.4845 94.5596 14.4624 94.6536 14.4431C94.7531 14.421 94.8415 14.3961 94.9217 14.3712C95.0018 14.3463 95.0681 14.3242 95.1206 14.3049L95.303 14.8687Z" fill="#331D02"/>
<path d="M104.786 13.5753H104.474V15.0428H103.75V11.5135H104.474V12.9866H104.786L105.914 11.5135H106.74C106.511 11.8093 106.287 12.1022 106.06 12.3979C105.834 12.6937 105.604 12.9866 105.381 13.2768L106.384 14.4652L106.483 14.5122L106.61 14.5315H106.87L106.809 15.0428C106.693 15.0511 106.588 15.0594 106.483 15.0621C106.381 15.0621 106.279 15.0456 106.182 15.0152C106.083 14.9792 105.986 14.9267 105.886 14.8521C105.787 14.7747 105.685 14.6697 105.58 14.5315L104.786 13.5753Z" fill="#331D02"/>
<path d="M117.489 13.3763H116.61C116.505 13.3763 116.405 13.3846 116.319 13.3984C116.234 13.4095 116.159 13.4371 116.093 13.4813C116.029 13.5228 115.98 13.5891 115.944 13.6692C115.91 13.7549 115.891 13.8655 115.891 14.0092C115.891 14.117 115.91 14.2054 115.946 14.2717C115.985 14.3381 116.032 14.3906 116.096 14.4237C116.159 14.4514 116.234 14.4735 116.325 14.4845C116.411 14.4956 116.507 14.5011 116.615 14.5011C116.803 14.5011 116.955 14.479 117.066 14.432C117.182 14.3823 117.27 14.3132 117.334 14.2165C117.397 14.1225 117.436 14.0064 117.455 13.8682C117.477 13.73 117.489 13.5697 117.489 13.3901V13.3763ZM118.497 15.0456C118.265 15.0207 118.091 14.9682 117.975 14.8853C117.864 14.8079 117.79 14.678 117.748 14.4956C117.632 14.6918 117.483 14.8383 117.295 14.9433C117.104 15.0456 116.875 15.0981 116.61 15.0981C116.4 15.0981 116.209 15.0787 116.032 15.0456C115.855 15.0152 115.709 14.9571 115.582 14.8742C115.457 14.7913 115.358 14.678 115.289 14.537C115.22 14.3989 115.184 14.2192 115.184 14.0092C115.184 13.766 115.22 13.567 115.289 13.4095C115.358 13.2547 115.457 13.1303 115.582 13.0336C115.709 12.9424 115.855 12.8761 116.032 12.8401C116.209 12.8014 116.4 12.7849 116.61 12.7849H117.483C117.472 12.608 117.45 12.4698 117.419 12.3675C117.389 12.268 117.342 12.1934 117.278 12.1464C117.215 12.0967 117.135 12.0635 117.033 12.0525C116.93 12.0387 116.806 12.0331 116.654 12.0331C116.543 12.0331 116.436 12.0387 116.328 12.0552C116.223 12.0691 116.12 12.0884 116.029 12.1077C115.933 12.1299 115.847 12.152 115.769 12.1768C115.692 12.2017 115.629 12.2211 115.576 12.2404L115.394 11.6738C115.548 11.602 115.736 11.544 115.952 11.5053C116.17 11.4638 116.405 11.4445 116.665 11.4445C116.961 11.4445 117.212 11.4638 117.414 11.508C117.613 11.555 117.773 11.6407 117.892 11.7678C118.014 11.8949 118.102 12.0801 118.152 12.3178C118.202 12.5555 118.229 12.8678 118.229 13.2547V13.9567C118.229 14.1391 118.254 14.2634 118.304 14.3381C118.359 14.4127 118.442 14.4597 118.561 14.4735L118.497 15.0456Z" fill="#331D02"/>
<path d="M127.868 12.6633C127.868 12.7876 127.879 12.8843 127.899 12.9534C127.921 13.0225 127.957 13.0778 128.006 13.111C128.053 13.1441 128.117 13.1662 128.197 13.1718C128.275 13.1801 128.374 13.1856 128.493 13.1856H129.203V12.1022H128.493C128.374 12.1022 128.275 12.1077 128.197 12.1133C128.117 12.1216 128.053 12.1409 128.006 12.1768C127.957 12.21 127.921 12.2625 127.899 12.3371C127.879 12.409 127.868 12.5057 127.868 12.6301V12.6633ZM129.203 15.0428V13.7743H128.769L128.139 14.5315C128.023 14.6669 127.918 14.7692 127.816 14.8466C127.719 14.9212 127.62 14.9765 127.526 15.0096C127.432 15.0428 127.332 15.0566 127.227 15.0566C127.128 15.0566 127.02 15.0511 126.907 15.0428L126.846 14.5315L126.973 14.537H127.114L127.241 14.5177L127.335 14.4624L127.937 13.7466C127.788 13.7273 127.661 13.6969 127.556 13.6527C127.451 13.6057 127.365 13.5421 127.302 13.4564C127.235 13.3708 127.191 13.263 127.161 13.1331C127.136 13.0032 127.125 12.8429 127.125 12.6467C127.125 12.4062 127.144 12.21 127.191 12.0635C127.235 11.9115 127.313 11.801 127.421 11.7208C127.526 11.6379 127.669 11.5854 127.846 11.555C128.023 11.5301 128.239 11.5135 128.501 11.5135H129.936V15.0428H129.203Z" fill="#331D02"/>
<path d="M46.6408 35.0962C46.1129 36.304 45.3971 37.3597 44.4878 38.2634C43.5786 39.1672 42.5173 39.8774 41.293 40.4053C40.0714 40.9276 38.7642 41.1902 37.3796 41.1902C35.9895 41.1902 34.6877 40.9276 33.4717 40.4053C32.2557 39.8774 31.1944 39.1672 30.2852 38.2634C29.3787 37.3597 28.6601 36.304 28.135 35.0962C27.6071 33.8885 27.3418 32.5951 27.3418 31.216C27.3418 29.8341 27.6071 28.538 28.135 27.3192C28.6601 26.1087 29.3787 25.0502 30.2852 24.1492C31.1944 23.2427 32.2557 22.5297 33.4717 22.0073C34.6877 21.4822 35.9895 21.2197 37.3796 21.2197C38.7642 21.2197 40.0714 21.4822 41.293 22.0073C42.5173 22.5297 43.5786 23.2427 44.4878 24.1492C45.3971 25.0502 46.1129 26.1087 46.6408 27.3192C47.1686 28.538 47.4339 29.8341 47.4339 31.216C47.4339 32.5951 47.1686 33.8885 46.6408 35.0962ZM45.0627 23.5716C44.0871 22.6043 42.9263 21.8249 41.6164 21.2584C40.2981 20.6973 38.872 20.4099 37.3796 20.4099C35.8817 20.4099 34.4611 20.6973 33.1484 21.2611C31.8439 21.8277 30.6859 22.6043 29.7103 23.5716C28.732 24.5444 27.9498 25.6969 27.386 27.0013C26.814 28.3113 26.5293 29.7291 26.5293 31.216C26.5293 32.7029 26.8167 34.1179 27.386 35.4196C27.9526 36.7158 28.732 37.8655 29.7103 38.8355C30.6859 39.8083 31.8439 40.5822 33.1484 41.146C34.4611 41.7125 35.8817 42 37.3796 42C38.872 42 40.2981 41.7153 41.6164 41.146C42.9263 40.5877 44.0871 39.8083 45.0627 38.8355C46.041 37.8655 46.8259 36.7158 47.3897 35.4196C47.9591 34.1179 48.2492 32.7029 48.2492 31.216C48.2492 29.7291 47.959 28.3113 47.3925 27.0013C46.8259 25.6969 46.041 24.5444 45.0627 23.5716Z" fill="#331D02"/>
<path d="M45.1532 34.4744C44.7082 35.4915 44.0947 36.3897 43.3402 37.1442C42.5829 37.8931 41.682 38.4956 40.6622 38.9323C39.6479 39.3634 38.5424 39.5818 37.3789 39.5818C36.2126 39.5818 35.1071 39.3634 34.0928 38.9323C33.0703 38.4956 32.1693 37.8931 31.412 37.1442C30.6548 36.3897 30.0523 35.4942 29.6156 34.48C29.1762 33.4712 28.9606 32.374 28.9606 31.216C28.9606 30.058 29.1762 28.9553 29.6156 27.9521C30.0523 26.9378 30.6548 26.0396 31.412 25.2879C32.1693 24.5334 33.073 23.9309 34.0956 23.486C35.1099 23.0493 36.2154 22.8282 37.3789 22.8282C38.5396 22.8282 39.6423 23.0493 40.6566 23.486C41.6792 23.9309 42.5829 24.5334 43.3402 25.2879C44.0947 26.0424 44.7082 26.9378 45.1532 27.9549C45.5926 28.9609 45.8165 30.058 45.8165 31.216C45.8165 32.3713 45.5926 33.4712 45.1532 34.4744ZM43.9178 24.7158C43.0832 23.8867 42.1048 23.2289 40.9827 22.7425C39.8607 22.2589 38.6585 22.0184 37.3789 22.0184C36.0965 22.0184 34.8943 22.2589 33.7695 22.7425C32.6502 23.2289 31.6718 23.8867 30.8372 24.7158C30.0026 25.5449 29.3448 26.515 28.8639 27.6315C28.383 28.7453 28.1426 29.9392 28.1426 31.216C28.1426 32.4901 28.383 33.684 28.8639 34.7978C29.3448 35.9116 30.0026 36.8872 30.8372 37.7163C31.6718 38.5454 32.6502 39.2004 33.7695 39.6757C34.8943 40.1566 36.0965 40.3915 37.3789 40.3915C38.6585 40.3915 39.8607 40.1566 40.9827 39.6757C42.1048 39.2004 43.0832 38.5454 43.9178 37.7163C44.7497 36.8872 45.4102 35.9116 45.8994 34.7978C46.3858 33.684 46.6318 32.4901 46.6318 31.216C46.6318 29.9392 46.3858 28.7453 45.8994 27.6315C45.4102 26.515 44.7497 25.5449 43.9178 24.7158Z" fill="#331D02"/>
<path d="M0.823915 21.2805H20.9326V22.0764H11.2403V41.1902H10.4361V22.0764H0.823915V21.2805ZM0.00585938 22.8862H9.62078V42H12.0528V22.8862H21.7479V20.4707H0.00585938V22.8862Z" fill="#331D02"/>
<path d="M59.5251 22.8889H72.4095C72.9456 22.8889 73.4652 22.9884 73.9489 23.1985C74.4408 23.4113 74.8719 23.6959 75.2312 24.0469C75.5877 24.3979 75.8779 24.818 76.0852 25.3044C76.298 25.7908 76.4003 26.2883 76.4003 26.8355C76.4003 27.3883 76.298 27.894 76.088 28.3694C75.8752 28.8558 75.585 29.2842 75.2229 29.649C74.8636 30.011 74.4353 30.3012 73.9489 30.5085C73.4652 30.7185 72.9456 30.8235 72.4095 30.8235H59.5251V22.8889ZM74.2722 31.2547C74.8609 31.0032 75.3694 30.655 75.8033 30.221C76.2372 29.7789 76.5799 29.2731 76.8342 28.6955C77.0912 28.1206 77.2156 27.496 77.2156 26.8355C77.2156 26.1833 77.0912 25.567 76.8342 24.9838C76.5799 24.3979 76.2372 23.8949 75.8033 23.4693C75.3694 23.0437 74.8609 22.7065 74.2722 22.455C73.6863 22.2035 73.0617 22.0764 72.4095 22.0764H58.707V31.6333H72.4095C73.0617 31.6333 73.6863 31.5062 74.2722 31.2547Z" fill="#331D02"/>
<path d="M106.64 22.0764H96.9446V41.1902H96.1403V22.0764H86.5309V21.2805H106.64V22.0764ZM107.455 20.4707H85.7129V22.8862H95.3278V42H97.7599V22.8862H107.455V20.4707Z" fill="#331D02"/>
<path d="M125.245 37.9899H111.932L118.505 24.1907L125.245 37.9899ZM110.645 38.7969H126.55L118.496 22.3169L110.645 38.7969Z" fill="#331D02"/>
<path d="M126.949 39.5983H110.264L109.504 41.1902H108.603L118.099 21.2611H118.898L128.632 41.1902H127.731L126.949 39.5983ZM119.409 20.4486H117.58L107.312 42H110.021L110.781 40.4081H126.443L127.219 42H129.936L119.409 20.4486Z" fill="#331D02"/>
<path d="M78.0738 41.1902H77.1342L71.4078 32.4292H58.7058V41.1902H57.9071V21.2805H72.4082C73.1848 21.2805 73.9145 21.4269 74.6026 21.7171C75.288 22.0073 75.885 22.4053 76.3935 22.9028C76.8993 23.4002 77.3 23.9889 77.5957 24.6632C77.8887 25.3403 78.0351 26.0644 78.0351 26.8355C78.0351 27.6176 77.8887 28.3473 77.5957 29.0244C77.3 29.7042 76.8993 30.2929 76.3935 30.7959C75.885 31.2989 75.288 31.6996 74.6026 31.9926C73.9145 32.2828 73.1848 32.4292 72.4082 32.4292H72.3668L78.0738 41.1902ZM74.9204 32.736C75.7026 32.4071 76.3907 31.9456 76.9711 31.368C77.5487 30.7931 78.013 30.1133 78.3447 29.345C78.6818 28.5684 78.8532 27.7227 78.8532 26.8355C78.8532 25.9567 78.6818 25.1193 78.3419 24.3427C78.0075 23.5716 77.5487 22.8945 76.9656 22.3224C76.388 21.7586 75.7026 21.3026 74.9204 20.9709C74.1356 20.6393 73.2899 20.4707 72.4082 20.4707H57.0918V42H59.5239V33.239H70.9656L76.692 42H79.5745L73.7763 33.0981C74.1687 33.0152 74.5501 32.8963 74.9204 32.736Z" fill="#331D02"/>
<path d="M110.647 38.794H126.549L118.499 22.3113L110.647 38.794ZM128.63 41.1819H127.729L126.95 39.59H110.266L109.506 41.1819H108.605L118.098 21.2556H118.897L128.63 41.1819ZM86.5337 21.2777H106.642V22.0709H96.9473V41.1819H96.1458V22.0709H86.5337V21.2777ZM74.2766 31.2491C74.8653 30.9976 75.3738 30.6522 75.8077 30.2127C76.2416 29.7761 76.5843 29.2703 76.8386 28.6899C77.0928 28.1123 77.22 27.4932 77.22 26.8272C77.22 26.1805 77.0928 25.5614 76.8386 24.9783C76.5843 24.3951 76.2416 23.8921 75.8077 23.4665C75.3738 23.0409 74.8653 22.701 74.2766 22.4495C73.6907 22.198 73.0689 22.0709 72.4139 22.0709H58.7142V31.6277H72.4139C73.0689 31.6277 73.6907 31.5006 74.2766 31.2491ZM57.9127 21.2777H72.4139C73.1877 21.2777 73.9201 21.4214 74.6055 21.7116C75.2937 22.0045 75.8906 22.4025 76.3992 22.8972C76.9049 23.3974 77.3056 23.9806 77.6014 24.6604C77.8943 25.3348 78.0408 26.0616 78.0408 26.8272C78.0408 27.6121 77.8943 28.3417 77.6014 29.0188C77.3056 29.6959 76.9049 30.2873 76.3992 30.7903C75.8906 31.2933 75.2937 31.6941 74.6055 31.987C73.9201 32.2772 73.1877 32.4237 72.4139 32.4237H72.3724L78.0795 41.1819H77.1398L71.4134 32.4237H58.7142V41.1819H57.9127V21.2777ZM28.1532 31.2104C28.1532 32.4845 28.3936 33.6784 28.8745 34.7922C29.3554 35.906 30.0104 36.8788 30.845 37.7079C31.6797 38.5398 32.658 39.192 33.7801 39.6701C34.9021 40.1482 36.1044 40.3859 37.3867 40.3859C38.6663 40.3859 39.8685 40.1482 40.9906 39.6701C42.1127 39.192 43.0882 38.5398 43.9256 37.7079C44.7603 36.8788 45.418 35.906 45.9072 34.7922C46.3936 33.6784 46.6396 32.4845 46.6396 31.2104C46.6396 29.9336 46.3936 28.7397 45.9072 27.6259C45.418 26.5121 44.7603 25.5421 43.9256 24.7102C43.0882 23.8811 42.1127 23.2233 40.9906 22.7397C39.8685 22.2533 38.6663 22.0156 37.3867 22.0156C36.1044 22.0156 34.9021 22.2533 33.7801 22.7397C32.658 23.2233 31.6797 23.8811 30.845 24.7102C30.0104 25.5421 29.3554 26.5121 28.8745 27.6259C28.3936 28.7397 28.1532 29.9336 28.1532 31.2104ZM27.3517 31.2104C27.3517 29.8286 27.6143 28.5324 28.1421 27.3164C28.6672 26.1031 29.3886 25.0446 30.2951 24.1436C31.2016 23.2427 32.2656 22.5269 33.4788 22.0018C34.6949 21.4794 35.9966 21.2141 37.3867 21.2141C38.7741 21.2141 40.0758 21.4794 41.3001 22.0018C42.5217 22.5269 43.5885 23.2427 44.495 24.1436C45.4042 25.0446 46.12 26.1031 46.6479 27.3164C47.1758 28.5324 47.4383 29.8286 47.4383 31.2104C47.4383 32.5895 47.1758 33.8857 46.6479 35.0907C46.12 36.2984 45.4042 37.3514 44.495 38.2551C43.5885 39.1616 42.5217 39.8691 41.3001 40.397C40.0758 40.9221 38.7741 41.1819 37.3867 41.1819C35.9966 41.1819 34.6949 40.9221 33.4788 40.397C32.2656 39.8691 31.2016 39.1616 30.2951 38.2551C29.3886 37.3514 28.6672 36.2984 28.1421 35.0907C27.6143 33.8857 27.3517 32.5895 27.3517 31.2104ZM0.833984 21.2777H20.9427V22.0709H11.2476V41.1819H10.4461V22.0709H0.833984V21.2777Z" fill="#BB9C52"/>
<path d="M2.06445 2.05613H127.877V1.37073H2.06445V2.05613Z" fill="#331D02"/>
<path d="M127.879 2.0562C129.018 2.0562 129.943 1.13588 129.943 0H129.255C129.255 0.760018 128.639 1.3708 127.879 1.3708V2.0562Z" fill="#331D02"/>
<path d="M129.947 3.42692C129.947 2.28828 129.016 1.37349 127.877 1.37073V2.05336C128.64 2.05336 129.256 2.6669 129.256 3.42692H129.947Z" fill="#331D02"/>
<path d="M2.06725 1.37073C1.49793 1.37073 0.978351 1.60011 0.605251 1.97321C0.232152 2.34355 0 2.86036 0 3.42692H0.688162C0.688162 2.6669 1.30447 2.05613 2.06725 2.05613V1.37073Z" fill="#331D02"/>
<path d="M0 0C0 1.13588 0.925841 2.0562 2.06725 2.0562V1.3708C1.30447 1.3708 0.688162 0.757255 0.688162 0H0Z" fill="#331D02"/>
</svg>
