<svg width="24" height="24" viewBox="0 0 24 24" fill="none" xmlns="http://www.w3.org/2000/svg">
<path d="M15.8906 11.9941C15.6113 12.3581 15.1818 12.5756 14.7231 12.5854C14.2654 12.5728 13.8374 12.3559 13.5566 11.9941" stroke="#323232" stroke-width="1.5" stroke-linecap="round" stroke-linejoin="round"/>
<path d="M10.4433 11.9941C10.1642 12.3578 9.7352 12.5753 9.27686 12.5854C8.81882 12.573 8.39042 12.356 8.10938 11.9941" stroke="#323232" stroke-width="1.5" stroke-linecap="round" stroke-linejoin="round"/>
<path fill-rule="evenodd" clip-rule="evenodd" d="M12.0003 21.4781C15.756 21.4762 19.0462 18.9619 20.0346 15.3386C21.1544 15.2143 22.0016 14.2678 22.0016 13.1412C22.0016 12.0145 21.1544 11.0681 20.0346 10.9438C19.0483 7.31893 15.7569 4.80347 12.0003 4.80347C8.24366 4.80347 4.95227 7.31893 3.96594 10.9438C2.84619 11.0681 1.99902 12.0145 1.99902 13.1412C1.99902 14.2678 2.84619 15.2143 3.96594 15.3386C4.95436 18.9619 8.24457 21.4762 12.0003 21.4781Z" stroke="#323232" stroke-width="1.5" stroke-linecap="round" stroke-linejoin="round"/>
<path d="M14.2232 16.149C12.9495 17.2601 11.051 17.2601 9.77734 16.149" stroke="#323232" stroke-width="1.5" stroke-linecap="round" stroke-linejoin="round"/>
<path d="M9.71826 2.52222C10.3235 2.52222 10.9039 2.76264 11.3318 3.19058C11.7598 3.61853 12.0002 4.19896 12.0002 4.80417" stroke="#323232" stroke-width="1.5" stroke-linecap="round" stroke-linejoin="round"/>
<path d="M12 4.80417C12 4.19896 12.2404 3.61853 12.6684 3.19058C13.0963 2.76264 13.6767 2.52222 14.282 2.52222" stroke="#323232" stroke-width="1.5" stroke-linecap="round" stroke-linejoin="round"/>
</svg>
