<svg width="24" height="25" viewBox="0 0 24 25" fill="none" xmlns="http://www.w3.org/2000/svg">
<path fill-rule="evenodd" clip-rule="evenodd" d="M19.9901 20.1001C19.2851 12.3961 14.2641 9.54911 14.2641 9.54911C14.2641 7.39311 15.8581 5.96611 16.8951 5.26611C17.3791 4.93911 17.5371 4.28911 17.2781 3.75711L16.9901 3.16511C16.7531 2.67911 16.2211 2.40111 15.7081 2.53411C14.4791 2.85311 13.3691 3.61211 12.6911 4.15511C12.2831 4.48211 11.7181 4.48211 11.3091 4.15511C10.6301 3.61211 9.52011 2.85311 8.29211 2.53411C7.77911 2.40011 7.24711 2.67811 7.01011 3.16511L6.72211 3.75711C6.46311 4.28911 6.62211 4.94011 7.10511 5.26611C8.14211 5.96611 9.73611 7.39311 9.73611 9.54911C9.73611 9.54911 4.71411 12.3961 4.01011 20.1001C3.84511 21.9011 5.83811 23.0371 7.20011 21.8921L7.22511 21.8711C8.06211 21.1681 9.50111 21.0821 10.2911 21.8421C11.1951 22.7121 12.7721 22.7191 13.6871 21.8641C14.5001 21.1051 15.9511 21.1771 16.8011 21.8921V21.8921C18.1621 23.0381 20.1551 21.9021 19.9901 20.1001V20.1001Z" stroke="#323232" stroke-width="1.5" stroke-linecap="round" stroke-linejoin="round"/>
<path d="M9.74023 9.55005H14.2602" stroke="#323232" stroke-width="1.5" stroke-linecap="round" stroke-linejoin="round"/>
</svg>
